<?xml version="1.0" encoding="UTF-8" standalone="no"?>
<!DOCTYPE svg PUBLIC "-//W3C//DTD SVG 1.1//EN" "http://www.w3.org/Graphics/SVG/1.1/DTD/svg11.dtd">
<svg width="100%" height="100%" viewBox="0 0 512 512" version="1.1" xmlns="http://www.w3.org/2000/svg" xmlns:xlink="http://www.w3.org/1999/xlink" xml:space="preserve" xmlns:serif="http://www.serif.com/" style="fill-rule:evenodd;clip-rule:evenodd;stroke-linejoin:round;stroke-miterlimit:2;">
    <rect id="ArtBoard1" x="0" y="0" width="512" height="512" style="fill:none;"/>
    <g id="ArtBoard11" serif:id="ArtBoard1">
        <path d="M121.244,5.254c1.583,-1.399 3.614,-2.254 5.792,-2.369c9.172,-0.485 18.628,-0.898 28.37,-1.24c11.627,-0.408 23.05,-0.714 34.269,-0.917c11.261,-0.205 21.602,-0.307 31.02,-0.307c4.645,-0 9.222,0.077 13.729,0.23c1.938,0.066 3.74,0.714 5.225,1.783c1.608,-0.937 3.475,-1.393 5.374,-1.274c31.485,1.958 59.484,7.793 84.053,17.187c2.459,0.94 4.417,2.857 5.408,5.296c0.165,0.407 0.333,0.812 0.504,1.217c2.605,-1.498 5.831,-1.704 8.67,-0.412c27.192,12.367 50.105,28.59 68.895,48.435c9.6,10.14 18.142,21.128 25.614,32.974c1.192,1.89 1.661,4.103 1.391,6.251c2.015,0.797 3.73,2.272 4.813,4.224c6.652,11.981 12.291,24.773 16.899,38.386c0.318,0.941 0.632,1.885 0.941,2.832c0.918,2.814 0.462,5.854 -1.15,8.25c2.657,1.134 4.69,3.437 5.45,6.295c6.666,25.058 10.063,51.921 10.063,80.606c0,32.102 -4.718,63.17 -14.12,93.208c-3.819,12.203 -8.522,23.884 -14.106,35.043c-0.951,1.901 -2.498,3.403 -4.368,4.305c0.291,2.03 -0.075,4.151 -1.138,6.028c-7.843,13.85 -17.125,26.85 -27.844,38.999c-11.653,13.206 -25.043,25.07 -40.212,35.536c-1.799,1.241 -3.925,1.798 -6.02,1.66c-0.716,1.981 -2.083,3.702 -3.931,4.847c-10.25,6.348 -21.243,12.114 -32.989,17.279c-11.797,5.187 -24.47,9.494 -38.027,12.88c-1.574,0.393 -3.203,0.372 -4.736,-0.034c-1.178,1.022 -2.62,1.766 -4.238,2.112c-16.841,3.603 -34.985,5.849 -54.445,6.666c-2.367,0.099 -4.64,-0.688 -6.413,-2.138c-1.706,1.548 -3.938,2.442 -6.292,2.466c-1.393,0.014 -2.792,0.021 -4.198,0.021c-7.148,0 -16.713,-0.204 -28.696,-0.624c-5.679,-0.2 -11.432,-0.399 -17.26,-0.598c-2.391,-0.082 -4.612,-1.056 -6.273,-2.659c-1.778,1.497 -4.067,2.308 -6.439,2.228c-1.678,-0.056 -3.362,-0.112 -5.052,-0.169c-12.364,-0.412 -23.8,-0.928 -34.309,-1.546c-9.386,-0.552 -16.731,-1.233 -22.043,-1.95c-2.24,-0.303 -4.266,-1.388 -5.749,-3.015c-2.199,0.84 -4.702,0.864 -7.02,-0.094c-14.667,-6.062 -24.654,-20.474 -24.654,-36.885l0,-7.895c0,-2.53 1.009,-4.951 2.796,-6.731c-1.76,-1.754 -2.796,-4.163 -2.796,-6.732l0,-42.583c0,-2.173 0.745,-4.281 2.111,-5.971c0.655,-0.81 1.307,-1.62 1.958,-2.43c-2.506,-1.746 -4.069,-4.635 -4.069,-7.795l0,-38.929c0,-1.727 0.471,-3.422 1.362,-4.901c1.761,-2.925 3.453,-6.041 5.053,-9.359c-3.79,-1.298 -6.415,-4.881 -6.415,-8.986l0,-182.554c0,-3.159 1.56,-6.037 4.047,-7.78c-0.414,-0.427 -0.842,-0.862 -1.28,-1.303c-1.772,-1.78 -2.767,-4.189 -2.767,-6.701l0,-55.933c0,-3.208 1.613,-6.149 4.205,-7.888c-0.951,-1.397 -1.904,-2.896 -2.867,-4.513c-0.876,-1.47 -1.338,-3.15 -1.338,-4.861l0,-6.689c0,-19.757 14.454,-36.541 33.992,-39.471c7.409,-1.112 15.8,-2.011 25.176,-2.673c2.193,-0.154 4.327,0.456 6.074,1.665Zm-46.242,422.517c5.189,-2.197 10.437,-3.355 15.49,-4.32c3.199,-0.611 6.289,-1.129 9.127,-2.036c2.673,-0.855 5.095,-2.088 6.804,-4.854c2.958,-4.789 3.596,-12.966 4.38,-21.187c1.018,-10.688 1.836,-21.529 4.238,-28.457c9.247,-26.685 24.78,-52.797 43.425,-75.271c3.276,-3.949 10.171,-10.341 18.353,-17.314l-0,-46.31c-1.587,3.004 -3.464,5.922 -5.65,8.738c-20.305,26.154 -28.454,50.315 -38.829,80.591c-6.783,19.797 -30.007,54.229 -57.338,88.324l0,22.096Zm101.817,-261.711l-0,-34.414c-8.983,-8.623 -16.537,-17.26 -20.33,-24.275c-6.238,-11.537 -8.761,-31.299 -17.184,-45.114c-9.531,-15.635 -19.24,-25.878 -28.341,-39.285c-6.622,0.563 -12.672,1.258 -18.151,2.079c-10.237,1.536 -17.811,10.33 -17.811,20.682l0,3.977c6.013,9.222 11.904,12.385 21.142,16.681c8.367,3.89 13.738,10.552 18.652,19.266c4.082,7.239 7.963,16.643 19.012,24.491c15.931,11.315 33.613,32.655 43.011,55.912Zm16.254,119.365c1.728,1.748 2.746,4.134 2.746,6.68l-0,49.621c-0,2.686 -1.137,5.238 -3.115,7.034c1.942,1.763 3.115,4.297 3.115,7.034l-0,22.566c3.285,0.109 6.453,0.218 9.504,0.327c3.824,0.136 6.81,0.226 8.958,0.26c1.851,0.029 3.583,0.589 5.041,1.542c1.477,-1.019 3.228,-1.61 5.057,-1.675c19.561,-0.696 36.265,-3.848 49.966,-10.224c14.062,-6.544 25.499,-15.036 33.992,-25.895c8.788,-11.238 14.936,-24.013 18.537,-38.276c4.205,-16.65 6.285,-33.891 6.285,-51.718c-0,-8.373 -0.648,-16.85 -1.926,-25.433c-0.274,-1.843 -0.001,-3.726 0.787,-5.415c0.5,-1.073 1.005,-2.152 1.514,-3.231c-2.564,-1.223 -4.506,-3.565 -5.169,-6.443c-0.367,-1.595 -0.756,-3.194 -1.165,-4.796c-3.113,-12.194 -8.193,-23.404 -15.257,-33.623c-1.305,-1.889 -1.874,-4.172 -1.63,-6.423c-2.198,-0.276 -4.276,-1.316 -5.83,-3.014c-7.504,-8.202 -16.835,-15.07 -27.836,-20.8c-14.286,-7.441 -32.426,-10.484 -54.152,-10.484l-17.997,-0c-2.439,-0 -4.878,0.033 -7.317,0.1c-0.458,0.012 -0.913,-0.008 -1.362,-0.061l-0,145.667c-0,2.513 -0.995,4.91 -2.746,6.68Zm-118.071,-37.593c3.404,-5.952 7.355,-10.997 11.187,-15.844c5.113,-6.466 10.395,-12.121 9.054,-22.877c-1.362,-10.925 -10.924,-24.606 -20.241,-37.764l0,76.485Zm101.817,67.582c-14.571,18.558 -26.739,39.605 -34.177,61.068c-2.626,7.579 -2.97,20.188 -4.47,31.496c-1.261,9.502 -3.36,18.21 -6.895,23.933c-5.015,8.12 -11.829,12.215 -19.79,14.874c-8.2,2.74 -18.043,3.306 -27.245,8.985c-3.164,1.952 -6.265,4.287 -9.24,6.843l0,3.654c0,5.872 2.439,11.256 6.433,15.091c4.868,-6.64 10.531,-12.312 16.993,-16.608c10.009,-6.654 32.053,-14.405 43.277,-19.281c8.193,-3.56 16.171,-7.425 21.668,-14.871c1.22,-1.652 0.993,-3.43 0.528,-5.233c-0.65,-2.516 -1.835,-5.071 -3.077,-7.686c-4.736,-9.975 -9.488,-20.569 -6.85,-30.939c3.668,-14.42 10.249,-36.246 22.845,-49.161l-0,-22.165Zm4.498,78.524c-0.012,2.74 0.801,5.542 1.738,8.373c1.862,5.627 4.517,11.281 6.329,16.739c3.453,10.406 3.876,20.249 -2.508,28.897c-8.663,11.736 -20.619,18.705 -33.53,24.314c-9.883,4.295 -29.932,10.957 -38.746,16.816c-0.021,0.014 -0.042,0.028 -0.062,0.042c0.67,0.042 1.352,0.084 2.046,0.124c10.361,0.61 21.636,1.118 33.826,1.525l0.241,0.008c5.429,-6.685 11.377,-12.888 17.328,-19.061c8.96,-9.294 26.253,-23.042 32.542,-34.528c11.251,-20.55 8.205,-25.917 5.505,-39.464c-0.448,-0.015 -0.909,-0.031 -1.381,-0.048c-4.753,-0.17 -9.792,-0.34 -15.117,-0.509c-3.147,-0.101 -6.005,-1.302 -8.211,-3.228Zm78.268,-0.421c-7.338,1.706 -15.195,2.908 -23.566,3.627c1.7,9.722 2.622,19.184 -0.401,31.082c6.223,-14.718 9.274,-16.182 19.885,-29.461c1.358,-1.699 2.711,-3.462 4.082,-5.248Zm-28.125,46.829c-1.45,3.406 -3.206,7.016 -5.316,10.87c-7.398,13.512 -26.593,29.839 -37.134,40.773c-0.03,0.032 -0.061,0.063 -0.091,0.095c9.6,0.315 17.475,0.478 23.625,0.494c3.694,-5.585 7.125,-11.349 9.902,-17.557c4.929,-11.018 6.016,-23.113 9.014,-34.675Zm203.264,-301.049c-4.671,6.265 -9.433,12.412 -11.87,19.922c-3.856,11.885 -4.779,24.482 -5.787,37.125c-1.184,14.832 -2.431,29.725 -6.748,43.978c-2.648,8.741 -7.674,16.743 -12.392,24.749c-2.975,5.047 -6.015,10.007 -6.453,15.756c-1.53,20.079 5.354,42.674 8.464,64.581c3.882,27.348 2.357,53.558 -16.939,74.996c-11.575,12.86 -21.974,15.184 -30.175,13.928c-5.656,-0.867 -10.988,-3.639 -15.827,-8.253c-4.496,-4.287 -8.721,-10.528 -12.836,-17.301c-0.601,-0.989 -1.91,-1.243 -3.13,-1.732c-1.953,-0.782 -4.07,-1.404 -6.116,-2.048c-5.3,-1.668 -10.143,-3.726 -13.228,-6.62c-1.525,-1.431 -3.278,-2.331 -5.622,-1.27c-3.145,1.424 -5.48,3.996 -7.703,6.665c-3.583,4.303 -6.72,9.076 -10.038,13.228c-8.946,11.196 -11.128,11.068 -16.695,24.762c-5.924,14.575 -6.066,30.766 -12.517,45.187c-0.622,1.39 -1.271,2.762 -1.944,4.118c8.924,-0.833 17.528,-2.009 25.812,-3.521c-0.289,-20.188 5,-37.314 26.472,-48.895c3.156,-1.702 9.084,-2.798 16.27,-2.719c12.671,0.138 30.206,3.037 36.612,4.535c5.757,1.345 11.23,3.523 16.491,6.282c11.894,-8.702 22.531,-18.389 31.926,-29.037c8.292,-9.397 15.648,-19.348 22.066,-29.855c-12.746,-14.322 -22.584,-29.814 -21.147,-47.476c0.918,-11.269 4.919,-21.448 7.72,-32.272c4.871,-18.83 8.912,-37.879 10.639,-57.273c2.144,-24.089 2.269,-41.498 4.781,-55.747c2.509,-14.231 7.186,-25.651 17.509,-37.039c-2.276,-6.455 -4.808,-12.706 -7.595,-18.754Zm-99.211,327.618c-5.569,-0.964 -12.205,-1.926 -17.579,-2.232c-1.924,-0.11 -4.486,0.011 -5.291,0.055c-7.246,4.13 -10.375,9.644 -11.452,15.99c8.036,-2.463 15.705,-5.304 23.007,-8.515c3.859,-1.697 7.631,-3.463 11.315,-5.298Zm52.596,-391.346c6.492,15.394 4.587,30.421 3.396,46.76c-1.183,16.221 -0.687,33.787 -6.149,49.337c-3.079,8.764 -10.859,19.861 -20.681,30.647c-5.224,5.735 -9.816,15.492 -14.245,25.01c1.15,8.554 1.729,17.013 1.729,25.378c-0,19.431 -2.28,38.222 -6.863,56.37c-4.267,16.897 -11.581,32.015 -21.993,45.328c-4.123,5.272 -8.803,10.105 -14.029,14.514c4.464,1.74 8.567,4.565 12.399,8.159c1.065,0.999 2.669,1.568 4.347,2.233c2.959,1.173 6.201,2.23 9.222,3.508c5.89,2.492 10.926,5.929 13.884,10.796c2.332,3.838 4.583,7.52 7.059,10.313c0.231,0.261 0.547,0.577 0.85,0.869c1.068,-0.863 2.861,-2.385 4.252,-3.93c13.116,-14.572 12.367,-32.758 9.728,-51.348c-3.41,-24.025 -10.346,-48.884 -8.669,-70.905c0.778,-10.204 5.134,-19.41 10.414,-28.369c3.536,-5.999 7.617,-11.836 9.601,-18.386c3.711,-12.251 4.569,-25.084 5.586,-37.832c1.192,-14.937 2.565,-29.776 7.121,-43.818c3.469,-10.689 9.789,-19.707 16.433,-28.629c2.542,-3.414 5.136,-6.813 7.455,-10.402c-6.033,-8.97 -12.769,-17.377 -20.2,-25.226c-3.4,-3.591 -6.949,-7.05 -10.647,-10.377Zm-47.93,110.635c0.954,-1.294 1.921,-2.487 2.898,-3.56c6.739,-7.4 12.606,-14.647 14.718,-20.66c4.617,-13.145 3.575,-28.067 4.575,-41.78c0.862,-11.815 3.595,-22.739 -1.441,-33.887c-2.258,-4.998 -6.538,-8.804 -10.863,-12.638c-6.501,-5.764 -13.375,-11.329 -18.583,-17.713c-5.442,-6.672 -9.591,-13.801 -12.934,-21.262c-18.917,-6.827 -39.959,-11.41 -63.138,-13.662c2.174,16.938 4.471,33.98 13.243,48.508c10.262,16.993 24.935,26.421 36.502,35.993c12.093,10.008 21.355,20.365 24.854,34.431c1.855,7.456 2.154,16.109 -0.055,26.559c4.011,6.255 7.419,12.812 10.224,19.671Zm-56.265,-60.3c-13.244,-10.755 -28.817,-22.293 -40.266,-41.254c-11.771,-19.491 -14.409,-42.66 -17.729,-65.195c-1.731,-0.023 -3.472,-0.034 -5.224,-0.034c-9.314,-0 -19.539,0.101 -30.675,0.303c-11.114,0.202 -22.43,0.505 -33.948,0.91c-3.514,0.123 -6.991,0.256 -10.431,0.398c6.135,7.958 12.408,15.852 18.607,26.019c8.683,14.243 11.506,34.531 17.937,46.425c3.251,6.012 10.303,13.299 18.299,20.591c1.338,-0.019 2.676,-0.028 4.014,-0.028l17.997,-0c24.522,-0 45.039,3.739 61.419,11.865Zm-208.912,231.945c14.421,-19.889 25.553,-37.853 29.704,-49.967c11.486,-33.521 20.908,-60.079 43.389,-89.036c7.534,-9.705 7.62,-21.713 4.483,-33.42c-5.625,-20.998 -21.555,-41.426 -35.686,-51.462c-13.329,-9.467 -19.904,-20.134 -25.096,-29.532c-1.423,-2.575 -2.653,-5.042 -3.994,-7.241c-1.09,-1.787 -2.107,-3.443 -3.975,-4.312c-3.191,-1.484 -6.111,-2.906 -8.825,-4.375c0,-0 0,33.258 -0,33.258c1.593,1.679 2.975,3.211 4.069,4.483c6.814,7.93 11.681,16.796 18.537,26.478c12.737,17.988 24.752,37.777 26.623,52.773c2.568,20.593 -5.339,32.232 -15.128,44.612c-5.943,7.515 -12.941,15.469 -14.105,30.415c-2.303,29.593 -10.171,52.168 -19.996,69.264l0,8.062Zm378.927,-153.385c-2.554,12.283 -2.884,27.407 -4.803,48.963c-1.869,20.991 -6.183,41.62 -11.455,62c-2.379,9.192 -6.106,17.755 -6.885,27.326c-0.534,6.556 2.193,12.069 6.31,17.229c2.702,-6.408 5.111,-12.991 7.226,-19.748c8.829,-28.209 13.252,-57.386 13.252,-87.533c0,-16.738 -1.22,-32.816 -3.645,-48.237Z" style="fill:white;"/>
        <path d="M65.502,386.13l0,-38.929c9.843,-16.343 17.758,-38.279 20.025,-67.415c1.355,-17.41 9.202,-26.817 16.124,-35.571c8.267,-10.455 15.321,-20.153 13.153,-37.543c-1.725,-13.829 -13.205,-31.872 -24.949,-48.46c-6.667,-9.415 -11.363,-18.063 -17.99,-25.775c-1.569,-1.826 -3.782,-4.227 -6.363,-6.82l0,-55.933c6.208,6.615 12.987,10.236 22.331,14.581c6.026,2.802 8.546,8.818 12.278,15.573c4.627,8.374 10.406,17.945 22.282,26.381c15.584,11.068 33.158,33.592 39.362,56.748c3.921,14.636 3.263,29.572 -6.156,41.705c-21.774,28.046 -30.781,53.824 -41.906,86.289c-5.879,17.155 -25.06,45.754 -48.191,75.169Zm0,-62.175l0,-182.554c4.501,6.779 10.261,14.581 16.018,22.713c10.68,15.082 21.582,31.248 23.15,43.822c1.74,13.95 -4.398,21.558 -11.029,29.945c-7.976,10.087 -16.734,21.053 -18.295,41.113c-1.38,17.733 -4.988,32.582 -9.844,44.961Zm0,-271.533l0,-6.689c0,-15.054 11.014,-27.843 25.902,-30.076c7.19,-1.079 15.335,-1.949 24.434,-2.591c10.019,15.974 20.907,26.74 31.579,44.246c8.507,13.954 11.127,33.887 17.428,45.54c3.851,7.122 12.063,15.967 21.474,24.697c-0,0.002 -0,0.003 -0,0.005l-0,151.191c-9.084,7.595 -17.036,14.741 -20.541,18.967c-17.918,21.597 -32.875,46.672 -41.761,72.315c-4.426,12.771 -2.423,40.05 -9.511,51.526c-8.485,13.738 -25.501,8.115 -40.615,17.442c-2.853,1.76 -5.66,3.754 -8.389,5.914l0,-42.583c27.384,-33.882 51.105,-68.366 57.851,-88.054c10.737,-31.332 19.3,-56.272 40.312,-83.338c11.447,-14.744 12.719,-32.823 7.954,-50.609c-6.825,-25.477 -26.167,-50.254 -43.312,-62.432c-12.523,-8.895 -17.16,-19.365 -21.786,-27.569c-3.851,-6.829 -7.827,-12.271 -14.383,-15.319c-11.815,-5.494 -18.898,-9.591 -26.636,-22.583Zm62.035,-40.051c9.117,-0.481 18.518,-0.892 28.202,-1.232c11.572,-0.406 22.942,-0.71 34.108,-0.913c11.199,-0.204 21.482,-0.305 30.848,-0.305c4.536,-0 9.005,0.075 13.406,0.225c3.836,23.726 5.173,48.883 17.679,69.594c11.579,19.173 27.758,30.189 40.809,40.989c8.594,7.113 15.805,14.007 18.292,24.004c0.971,3.904 1.218,8.237 0.611,13.177c-8.218,-8.982 -18.409,-16.538 -30.457,-22.813c-15.454,-8.049 -35.037,-11.558 -58.54,-11.558l-17.997,-0c-2.526,-0 -5.051,0.034 -7.577,0.103c-10.056,-8.952 -19.093,-18.25 -23.093,-25.647c-6.368,-11.778 -9.093,-31.895 -17.692,-45.999c-9.614,-15.771 -19.429,-26.009 -28.599,-39.625Zm116.896,-1.73c30.433,1.894 57.503,7.5 81.25,16.579c3.261,8.022 7.396,15.673 13.161,22.741c4.898,6.005 11.411,11.189 17.524,16.609c5.353,4.746 10.423,9.649 13.218,15.836c5.725,12.672 3.238,25.058 2.259,38.489c-1.06,14.528 -0.195,30.311 -5.087,44.238c-2.427,6.906 -8.916,15.407 -16.657,23.907c-4.488,4.928 -8.601,12.751 -12.478,21.006c-0.385,-1.667 -0.79,-3.338 -1.218,-5.013c-3.396,-13.302 -8.942,-25.528 -16.647,-36.675c2.772,-10.492 2.812,-18.939 1.033,-26.09c-3.011,-12.104 -11.286,-20.795 -21.691,-29.406c-12.282,-10.164 -27.682,-20.357 -38.578,-38.401c-11.465,-18.987 -12.873,-41.931 -16.089,-63.82Zm95.292,22.454c26.016,11.833 47.953,27.333 65.929,46.32c9.174,9.689 17.338,20.19 24.478,31.51c-3.11,5.827 -7.101,11.071 -11.011,16.322c-6.024,8.09 -11.872,16.197 -15.017,25.888c-4.328,13.341 -5.555,27.45 -6.687,41.642c-1.071,13.426 -2.055,26.928 -5.964,39.83c-2.2,7.263 -6.589,13.804 -10.508,20.456c-4.53,7.686 -8.459,15.512 -9.126,24.266c-1.63,21.39 5.29,45.513 8.602,68.849c3.043,21.435 3.05,42.236 -12.073,59.038c-5.112,5.68 -8.916,8.186 -12.538,7.631c-2.529,-0.387 -4.631,-2.251 -6.734,-4.623c-2.813,-3.173 -5.42,-7.322 -8.069,-11.682c-4.944,-8.137 -19.711,-8.798 -25.833,-14.541c-7.321,-6.867 -15.991,-9.944 -27.24,-4.85c-11.052,5.004 -17.778,16.496 -25.009,25.545c-10.394,13.007 -13.09,13.734 -19.557,29.645c-5.839,14.365 -5.892,30.346 -12.25,44.56c-3.699,8.268 -8.457,15.814 -13.518,23.158c-1.362,0.013 -2.729,0.02 -4.103,0.02c-7.065,0 -16.519,-0.203 -28.363,-0.619c-5.681,-0.199 -11.438,-0.398 -17.269,-0.598c4.544,-5.373 9.439,-10.418 14.306,-15.466c10.061,-10.437 28.578,-25.844 35.64,-38.742c14.709,-26.866 10.116,-40.606 6.906,-58.346c21.007,-0.747 38.921,-4.257 53.636,-11.105c15.522,-7.223 28.092,-16.669 37.467,-28.656c9.6,-12.276 16.331,-26.222 20.265,-41.802c4.394,-17.399 6.574,-35.415 6.574,-54.044c-0,-8.834 -0.681,-17.777 -2.03,-26.832c5.233,-11.222 10.815,-23.137 17.022,-29.953c8.819,-9.684 15.977,-19.53 18.742,-27.399c5.187,-14.767 4.513,-31.474 5.637,-46.879c1.106,-15.171 3.329,-29.123 -3.137,-43.436c-3.373,-7.466 -9.291,-13.547 -15.75,-19.273c-5.698,-5.052 -11.821,-9.827 -16.385,-15.423c-2.719,-3.333 -5.03,-6.813 -7.033,-10.411Zm96.341,87.848c6.38,11.492 11.786,23.763 16.205,36.821c0.308,0.908 0.61,1.819 0.908,2.732c-23.345,22.549 -19.461,43.705 -23.688,91.183c-1.772,19.913 -5.902,39.476 -10.904,58.81c-2.663,10.294 -6.576,19.948 -7.448,30.664c-1.405,17.26 10.401,31.722 23.437,45.45c-7.521,13.282 -16.423,25.746 -26.702,37.396c-11.15,12.637 -23.968,23.986 -38.483,34.002c-6.062,-3.721 -12.403,-6.689 -19.219,-8.283c-8.637,-2.019 -38.709,-6.75 -46.21,-2.704c-20.411,11.008 -22.643,28.317 -21.104,48.26c-16.35,3.498 -33.965,5.671 -52.856,6.464c3.89,-5.943 7.492,-12.082 10.438,-18.667c6.406,-14.322 6.506,-30.411 12.388,-44.885c6.074,-14.943 8.313,-14.899 18.074,-27.115c3.356,-4.2 6.535,-9.024 10.16,-13.377c3.149,-3.782 6.628,-7.222 11.085,-9.24c6.634,-3.004 11.722,-1.055 16.04,2.995c5.516,5.174 19.638,5.065 24.093,12.396c3.639,5.99 7.297,11.568 11.273,15.358c3.294,3.141 6.86,5.148 10.71,5.738c5.986,0.918 13.226,-1.506 21.675,-10.893c17.284,-19.203 18.071,-42.808 14.594,-67.305c-3.208,-22.595 -10.108,-45.927 -8.531,-66.638c0.549,-7.197 4.018,-13.539 7.742,-19.858c4.333,-7.352 9.051,-14.651 11.484,-22.679c4.12,-13.602 5.24,-27.825 6.37,-41.979c1.068,-13.389 2.137,-26.716 6.221,-39.302c2.796,-8.618 8.137,-15.747 13.493,-22.941c3.017,-4.052 6.043,-8.119 8.755,-12.403Zm21.265,53.594c6.463,24.299 9.743,50.348 9.743,78.164c0,31.124 -4.571,61.247 -13.686,90.371c-3.665,11.711 -8.177,22.92 -13.536,33.629c-10.68,-10.39 -19.645,-21.08 -18.535,-34.719c0.825,-10.123 4.641,-19.212 7.156,-28.935c5.143,-19.876 9.368,-39.991 11.19,-60.462c3.578,-40.188 2.884,-59.325 17.668,-78.048Zm-97.499,289.713c-9.883,6.122 -20.484,11.679 -31.81,16.659c-11.324,4.98 -23.491,9.11 -36.504,12.36c-1.307,-15.346 1.14,-28.556 17.292,-37.267c5.522,-2.978 32.678,2.174 39.037,3.66c4.192,0.98 8.163,2.579 11.985,4.588Zm-204.684,36.182c-1.679,-0.057 -3.364,-0.113 -5.055,-0.17c-12.276,-0.409 -23.632,-0.921 -34.067,-1.535c-9.082,-0.534 -16.19,-1.187 -21.329,-1.881c4.013,-6.366 8.834,-11.818 14.644,-15.68c9.163,-6.091 29.945,-13.154 40.219,-17.618c11.376,-4.943 22.04,-10.903 29.673,-21.243c11.166,-15.127 -11.306,-35.755 -6.768,-53.593c2.613,-10.272 5.973,-22.978 13.854,-32.918l-0,28.251c-0,1.958 1.554,3.563 3.511,3.625c5.339,0.171 10.39,0.341 15.154,0.511c3.904,0.139 6.953,0.23 9.147,0.264c2.795,22.695 9.58,26.169 -5.278,53.305c-6.62,12.091 -24.602,26.774 -34.034,36.558c-6.837,7.092 -13.686,14.21 -19.671,22.124Zm-70.863,-6.06c-11.175,-4.619 -18.783,-15.601 -18.783,-28.105l0,-7.895c4.337,-4.047 8.987,-7.747 13.751,-10.687c16.498,-10.18 34.68,-5.771 43.941,-20.766c7.431,-12.031 5.832,-40.159 10.472,-53.548c8.491,-24.501 22.851,-48.503 39.971,-69.139c2.355,-2.839 6.991,-7.186 12.682,-12.127l-0,49.621c-13.39,10.977 -19.548,33.243 -23.139,47.357c-4.212,16.558 18.202,33.115 7.837,47.157c-6.527,8.841 -15.8,13.716 -25.526,17.942c-10.828,4.704 -32.148,12.061 -41.804,18.48c-7.837,5.21 -14.256,12.808 -19.402,21.71Z"/>
    </g>
</svg>
