<?xml version="1.0" encoding="UTF-8" standalone="no"?>
<!DOCTYPE svg PUBLIC "-//W3C//DTD SVG 1.1//EN" "http://www.w3.org/Graphics/SVG/1.1/DTD/svg11.dtd">
<svg width="100%" height="100%" viewBox="0 0 2338 512" version="1.1" xmlns="http://www.w3.org/2000/svg" xmlns:xlink="http://www.w3.org/1999/xlink" xml:space="preserve" xmlns:serif="http://www.serif.com/" style="fill-rule:evenodd;clip-rule:evenodd;stroke-linejoin:round;stroke-miterlimit:2;">
    <g>
        <g>
            <path d="M65.242,4.833c1.582,-1.399 3.614,-2.254 5.792,-2.369c9.172,-0.485 18.628,-0.898 28.37,-1.24c11.627,-0.408 23.05,-0.713 34.269,-0.917c11.261,-0.205 21.601,-0.307 31.02,-0.307c4.645,0 9.221,0.077 13.729,0.23c1.938,0.066 3.74,0.714 5.225,1.783c1.608,-0.937 3.475,-1.393 5.374,-1.274c31.485,1.958 59.484,7.793 84.053,17.187c2.458,0.94 4.417,2.858 5.408,5.296c0.165,0.407 0.333,0.812 0.503,1.217c2.606,-1.498 5.831,-1.704 8.671,-0.412c27.192,12.367 50.105,28.59 68.895,48.435c9.6,10.14 18.142,21.128 25.614,32.974c1.192,1.89 1.661,4.103 1.391,6.252c2.015,0.796 3.73,2.271 4.813,4.223c6.652,11.981 12.291,24.773 16.899,38.386c0.318,0.941 0.632,1.885 0.941,2.832c0.918,2.814 0.462,5.854 -1.15,8.25c2.657,1.134 4.69,3.437 5.45,6.295c6.665,25.058 10.063,51.921 10.063,80.606c0,32.102 -4.718,63.17 -14.12,93.208c-3.819,12.204 -8.522,23.884 -14.106,35.043c-0.951,1.901 -2.498,3.403 -4.368,4.305c0.29,2.03 -0.075,4.151 -1.138,6.028c-7.843,13.85 -17.125,26.85 -27.844,38.999c-11.653,13.206 -25.043,25.07 -40.212,35.536c-1.799,1.241 -3.925,1.798 -6.02,1.66c-0.716,1.981 -2.083,3.702 -3.932,4.847c-10.25,6.348 -21.242,12.114 -32.988,17.279c-11.797,5.187 -24.47,9.495 -38.027,12.88c-1.574,0.393 -3.203,0.372 -4.736,-0.034c-1.178,1.022 -2.62,1.766 -4.238,2.112c-16.841,3.603 -34.985,5.849 -54.445,6.666c-2.367,0.1 -4.64,-0.688 -6.414,-2.138c-1.705,1.548 -3.938,2.442 -6.291,2.466c-1.393,0.014 -2.793,0.021 -4.199,0.021c-7.147,0 -16.712,-0.204 -28.695,-0.624c-5.679,-0.2 -11.432,-0.399 -17.26,-0.598c-2.391,-0.082 -4.612,-1.056 -6.273,-2.659c-1.778,1.497 -4.067,2.308 -6.439,2.228c-1.678,-0.056 -3.362,-0.112 -5.052,-0.169c-12.364,-0.412 -23.8,-0.928 -34.309,-1.546c-9.386,-0.552 -16.731,-1.233 -22.043,-1.95c-2.24,-0.303 -4.266,-1.388 -5.749,-3.015c-2.199,0.84 -4.702,0.864 -7.02,-0.094c-14.667,-6.062 -24.654,-20.474 -24.654,-36.885l0,-7.895c0,-2.53 1.009,-4.951 2.796,-6.731c-1.76,-1.754 -2.796,-4.163 -2.796,-6.732l0,-42.582c0,-2.174 0.745,-4.282 2.111,-5.972c0.655,-0.81 1.307,-1.62 1.958,-2.43c-2.506,-1.746 -4.069,-4.635 -4.069,-7.795l0,-38.929c0,-1.727 0.471,-3.422 1.362,-4.901c1.761,-2.925 3.453,-6.041 5.053,-9.359c-3.79,-1.298 -6.415,-4.881 -6.415,-8.986l0,-182.554c0,-3.159 1.56,-6.037 4.047,-7.78c-0.414,-0.427 -0.842,-0.862 -1.28,-1.302c-1.772,-1.781 -2.767,-4.19 -2.767,-6.702l-0,-55.933c0,-3.208 1.613,-6.149 4.205,-7.888c-0.951,-1.397 -1.904,-2.896 -2.867,-4.513c-0.876,-1.47 -1.338,-3.15 -1.338,-4.861l-0,-6.689c0,-19.757 14.454,-36.541 33.992,-39.471c7.409,-1.112 15.8,-2.011 25.175,-2.672c2.194,-0.155 4.328,0.455 6.075,1.664Zm-46.242,422.517c5.189,-2.197 10.437,-3.355 15.49,-4.32c3.199,-0.611 6.289,-1.129 9.127,-2.036c2.673,-0.855 5.095,-2.087 6.804,-4.854c2.958,-4.789 3.596,-12.966 4.379,-21.187c1.019,-10.688 1.837,-21.529 4.238,-28.457c9.248,-26.685 24.781,-52.797 43.426,-75.271c3.276,-3.949 10.171,-10.341 18.353,-17.314l-0,-46.31c-1.587,3.004 -3.464,5.922 -5.65,8.738c-20.305,26.154 -28.454,50.315 -38.829,80.591c-6.783,19.797 -30.007,54.229 -57.338,88.324l0,22.096Zm101.817,-261.711l-0,-34.413c-8.983,-8.624 -16.537,-17.261 -20.33,-24.276c-6.239,-11.537 -8.762,-31.299 -17.184,-45.114c-9.531,-15.635 -19.24,-25.878 -28.341,-39.285c-6.622,0.563 -12.672,1.258 -18.151,2.08c-10.238,1.535 -17.811,10.329 -17.811,20.681l0,3.977c6.013,9.222 11.904,12.385 21.142,16.681c8.367,3.89 13.738,10.552 18.652,19.266c4.082,7.24 7.963,16.643 19.012,24.491c15.931,11.315 33.613,32.655 43.011,55.912Zm16.254,119.365c1.728,1.748 2.746,4.134 2.746,6.681l-0,49.62c-0,2.686 -1.137,5.238 -3.115,7.034c1.942,1.763 3.115,4.297 3.115,7.034l-0,22.566c3.285,0.109 6.453,0.218 9.504,0.327c3.824,0.137 6.81,0.226 8.958,0.26c1.851,0.029 3.583,0.589 5.041,1.542c1.477,-1.019 3.228,-1.61 5.057,-1.675c19.561,-0.696 36.264,-3.848 49.966,-10.224c14.061,-6.544 25.499,-15.036 33.991,-25.895c8.789,-11.238 14.936,-24.013 18.538,-38.276c4.205,-16.65 6.284,-33.891 6.284,-51.718c0,-8.373 -0.647,-16.85 -1.925,-25.433c-0.274,-1.843 -0.001,-3.726 0.786,-5.414c0.501,-1.074 1.006,-2.153 1.515,-3.232c-2.564,-1.223 -4.506,-3.564 -5.169,-6.443c-0.367,-1.595 -0.756,-3.194 -1.165,-4.796c-3.113,-12.194 -8.193,-23.404 -15.257,-33.623c-1.305,-1.889 -1.874,-4.172 -1.63,-6.423c-2.198,-0.276 -4.276,-1.316 -5.83,-3.014c-7.504,-8.202 -16.835,-15.07 -27.837,-20.8c-14.285,-7.441 -32.425,-10.484 -54.151,-10.484l-17.997,-0c-2.439,-0 -4.878,0.033 -7.317,0.1c-0.458,0.012 -0.913,-0.008 -1.362,-0.061l-0,145.667c-0,2.513 -0.995,4.911 -2.746,6.68Zm-118.071,-37.593c3.404,-5.952 7.355,-10.997 11.187,-15.844c5.113,-6.466 10.395,-12.121 9.054,-22.877c-1.362,-10.925 -10.924,-24.606 -20.241,-37.764l0,76.485Zm101.817,67.582c-14.571,18.558 -26.739,39.605 -34.177,61.068c-2.626,7.579 -2.97,20.188 -4.47,31.496c-1.261,9.502 -3.36,18.21 -6.895,23.933c-5.015,8.12 -11.829,12.215 -19.79,14.875c-8.2,2.739 -18.043,3.306 -27.245,8.984c-3.164,1.952 -6.265,4.287 -9.24,6.843l0,3.654c0,5.872 2.439,11.256 6.433,15.091c4.868,-6.64 10.531,-12.312 16.993,-16.608c10.009,-6.654 32.053,-14.405 43.277,-19.281c8.192,-3.56 16.171,-7.425 21.668,-14.871c1.22,-1.652 0.993,-3.43 0.527,-5.233c-0.649,-2.515 -1.835,-5.071 -3.076,-7.686c-4.736,-9.975 -9.488,-20.569 -6.85,-30.938c3.668,-14.421 10.249,-36.247 22.845,-49.162l-0,-22.165Zm4.498,78.524c-0.012,2.74 0.801,5.542 1.738,8.373c1.862,5.627 4.517,11.281 6.329,16.739c3.453,10.406 3.875,20.249 -2.508,28.897c-8.664,11.736 -20.619,18.705 -33.53,24.314c-9.884,4.295 -29.932,10.957 -38.746,16.816c-0.021,0.014 -0.042,0.028 -0.062,0.042c0.67,0.042 1.352,0.084 2.045,0.125c10.362,0.609 21.637,1.117 33.827,1.524l0.241,0.008c5.429,-6.685 11.377,-12.888 17.328,-19.061c8.96,-9.294 26.253,-23.042 32.541,-34.528c11.252,-20.55 8.206,-25.917 5.506,-39.464c-0.448,-0.015 -0.909,-0.031 -1.382,-0.048c-4.752,-0.17 -9.791,-0.34 -15.116,-0.509c-3.147,-0.101 -6.005,-1.302 -8.211,-3.228Zm78.268,-0.421c-7.338,1.706 -15.195,2.908 -23.566,3.627c1.7,9.722 2.622,19.184 -0.401,31.082c6.223,-14.718 9.274,-16.182 19.885,-29.46c1.358,-1.7 2.711,-3.463 4.082,-5.249Zm-28.125,46.829c-1.45,3.406 -3.206,7.016 -5.316,10.87c-7.398,13.512 -26.594,29.839 -37.134,40.773c-0.031,0.032 -0.061,0.063 -0.091,0.095c9.6,0.315 17.475,0.478 23.625,0.494c3.694,-5.585 7.125,-11.349 9.902,-17.557c4.929,-11.018 6.016,-23.113 9.014,-34.675Zm203.264,-301.048c-4.671,6.264 -9.433,12.411 -11.87,19.921c-3.856,11.885 -4.779,24.482 -5.788,37.125c-1.183,14.832 -2.43,29.725 -6.748,43.978c-2.648,8.741 -7.673,16.743 -12.391,24.749c-2.975,5.047 -6.015,10.007 -6.453,15.756c-1.53,20.079 5.354,42.674 8.464,64.581c3.882,27.348 2.357,53.558 -16.939,74.996c-11.575,12.86 -21.974,15.184 -30.175,13.928c-5.656,-0.867 -10.988,-3.639 -15.827,-8.253c-4.496,-4.286 -8.721,-10.528 -12.836,-17.301c-0.601,-0.989 -1.91,-1.243 -3.13,-1.732c-1.953,-0.782 -4.07,-1.404 -6.116,-2.048c-5.3,-1.668 -10.143,-3.726 -13.228,-6.62c-1.525,-1.431 -3.279,-2.331 -5.622,-1.27c-3.146,1.424 -5.48,3.996 -7.703,6.665c-3.583,4.303 -6.72,9.076 -10.038,13.228c-8.946,11.196 -11.129,11.068 -16.695,24.762c-5.924,14.575 -6.066,30.766 -12.517,45.187c-0.622,1.39 -1.271,2.762 -1.944,4.118c8.924,-0.833 17.528,-2.009 25.812,-3.521c-0.29,-20.188 5,-37.314 26.472,-48.895c3.156,-1.702 9.084,-2.798 16.27,-2.719c12.67,0.138 30.206,3.037 36.612,4.535c5.757,1.346 11.23,3.523 16.491,6.282c11.894,-8.702 22.531,-18.389 31.926,-29.037c8.292,-9.397 15.648,-19.348 22.066,-29.855c-12.746,-14.322 -22.584,-29.814 -21.147,-47.476c0.918,-11.269 4.919,-21.448 7.72,-32.272c4.871,-18.83 8.912,-37.879 10.639,-57.273c2.144,-24.089 2.269,-41.498 4.781,-55.747c2.509,-14.231 7.186,-25.651 17.509,-37.039c-2.276,-6.455 -4.808,-12.706 -7.595,-18.753Zm-99.211,327.617c-5.569,-0.964 -12.205,-1.925 -17.579,-2.232c-1.924,-0.11 -4.486,0.011 -5.291,0.055c-7.246,4.13 -10.375,9.644 -11.452,15.99c8.036,-2.463 15.704,-5.304 23.007,-8.515c3.859,-1.697 7.631,-3.463 11.315,-5.298Zm52.595,-391.346c6.493,15.394 4.588,30.421 3.396,46.76c-1.182,16.221 -0.686,33.787 -6.148,49.337c-3.079,8.764 -10.859,19.861 -20.681,30.647c-5.224,5.735 -9.816,15.492 -14.245,25.01c1.15,8.554 1.728,17.013 1.728,25.378c0,19.431 -2.279,38.222 -6.862,56.37c-4.267,16.897 -11.581,32.015 -21.993,45.328c-4.123,5.272 -8.803,10.106 -14.029,14.514c4.464,1.74 8.567,4.565 12.399,8.159c1.065,0.999 2.669,1.568 4.347,2.233c2.959,1.173 6.201,2.23 9.222,3.508c5.89,2.492 10.926,5.929 13.884,10.796c2.332,3.838 4.583,7.52 7.059,10.313c0.231,0.261 0.547,0.577 0.85,0.869c1.068,-0.863 2.86,-2.384 4.252,-3.93c13.116,-14.572 12.367,-32.758 9.728,-51.348c-3.41,-24.025 -10.346,-48.884 -8.669,-70.905c0.778,-10.204 5.134,-19.41 10.414,-28.368c3.536,-6 7.617,-11.836 9.601,-18.387c3.711,-12.251 4.569,-25.084 5.586,-37.832c1.192,-14.937 2.565,-29.776 7.121,-43.817c3.468,-10.69 9.789,-19.708 16.433,-28.63c2.542,-3.414 5.136,-6.813 7.455,-10.402c-6.033,-8.97 -12.769,-17.377 -20.2,-25.226c-3.4,-3.591 -6.949,-7.05 -10.648,-10.377Zm-47.929,110.635c0.954,-1.294 1.921,-2.487 2.898,-3.56c6.739,-7.4 12.605,-14.647 14.718,-20.66c4.617,-13.145 3.575,-28.067 4.575,-41.78c0.861,-11.815 3.595,-22.739 -1.441,-33.886c-2.258,-4.999 -6.538,-8.805 -10.863,-12.639c-6.501,-5.764 -13.375,-11.329 -18.583,-17.713c-5.442,-6.672 -9.591,-13.801 -12.934,-21.262c-18.917,-6.827 -39.959,-11.41 -63.138,-13.662c2.173,16.938 4.47,33.981 13.243,48.508c10.262,16.993 24.935,26.421 36.502,35.993c12.093,10.008 21.355,20.365 24.854,34.431c1.855,7.456 2.154,16.109 -0.055,26.559c4.011,6.255 7.419,12.813 10.224,19.671Zm-56.265,-60.3c-13.245,-10.755 -28.817,-22.293 -40.266,-41.254c-11.771,-19.491 -14.409,-42.66 -17.729,-65.195c-1.731,-0.023 -3.472,-0.034 -5.224,-0.034c-9.314,0 -19.539,0.101 -30.675,0.303c-11.114,0.202 -22.43,0.506 -33.948,0.91c-3.514,0.123 -6.991,0.256 -10.431,0.398c6.135,7.958 12.408,15.852 18.607,26.019c8.683,14.243 11.505,34.531 17.937,46.425c3.251,6.013 10.303,13.299 18.299,20.591c1.338,-0.019 2.676,-0.028 4.014,-0.028l17.997,-0c24.522,-0 45.039,3.739 61.419,11.865Zm-208.912,231.945c14.421,-19.889 25.553,-37.853 29.704,-49.967c11.486,-33.521 20.907,-60.078 43.389,-89.036c7.533,-9.704 7.619,-21.713 4.483,-33.42c-5.625,-20.998 -21.555,-41.425 -35.686,-51.462c-13.329,-9.467 -19.904,-20.134 -25.096,-29.532c-1.423,-2.575 -2.653,-5.042 -3.994,-7.241c-1.09,-1.787 -2.108,-3.443 -3.975,-4.312c-3.191,-1.484 -6.111,-2.906 -8.825,-4.375c-0,-0 -0,33.258 -0,33.258c1.593,1.679 2.975,3.211 4.068,4.483c6.815,7.93 11.682,16.796 18.538,26.478c12.737,17.988 24.752,37.777 26.623,52.773c2.568,20.593 -5.339,32.232 -15.128,44.612c-5.943,7.515 -12.942,15.47 -14.105,30.415c-2.303,29.593 -10.171,52.168 -19.996,69.264l-0,8.062Zm378.927,-153.385c-2.555,12.283 -2.884,27.407 -4.803,48.963c-1.869,20.991 -6.183,41.62 -11.455,62c-2.379,9.192 -6.106,17.755 -6.885,27.326c-0.534,6.556 2.193,12.069 6.31,17.229c2.702,-6.408 5.111,-12.991 7.226,-19.748c8.828,-28.209 13.252,-57.386 13.252,-87.533c0,-16.738 -1.22,-32.816 -3.645,-48.237Z" style="fill:white;"/>
            <path d="M9.5,385.709l0,-38.929c9.843,-16.343 17.758,-38.279 20.025,-67.415c1.355,-17.41 9.201,-26.817 16.124,-35.571c8.267,-10.455 15.321,-20.153 13.153,-37.543c-1.725,-13.829 -13.205,-31.872 -24.95,-48.459c-6.666,-9.416 -11.362,-18.064 -17.989,-25.776c-1.569,-1.826 -3.782,-4.227 -6.363,-6.82l-0,-55.933c6.208,6.615 12.987,10.237 22.331,14.581c6.026,2.802 8.546,8.818 12.278,15.573c4.627,8.374 10.406,17.945 22.282,26.381c15.584,11.068 33.158,33.592 39.362,56.748c3.921,14.636 3.263,29.572 -6.156,41.705c-21.774,28.046 -30.781,53.824 -41.906,86.289c-5.879,17.155 -25.06,45.754 -48.191,75.169Zm-0,-62.175l0,-182.554c4.501,6.779 10.26,14.581 16.018,22.713c10.68,15.082 21.582,31.248 23.15,43.822c1.74,13.95 -4.398,21.558 -11.029,29.945c-7.977,10.087 -16.734,21.053 -18.295,41.113c-1.38,17.733 -4.988,32.582 -9.844,44.961Zm-0,-271.533l-0,-6.689c0,-15.054 11.014,-27.843 25.901,-30.076c7.191,-1.079 15.335,-1.949 24.435,-2.591c10.018,15.974 20.906,26.74 31.579,44.246c8.507,13.954 11.127,33.887 17.428,45.54c3.851,7.122 12.063,15.967 21.474,24.697c-0,0.002 -0,0.003 -0,0.005l-0,151.191c-9.084,7.595 -17.036,14.741 -20.541,18.967c-17.918,21.597 -32.875,46.672 -41.761,72.315c-4.426,12.771 -2.423,40.05 -9.511,51.526c-8.485,13.738 -25.501,8.115 -40.616,17.442c-2.852,1.76 -5.659,3.754 -8.388,5.914l0,-42.582c27.383,-33.882 51.105,-68.367 57.851,-88.055c10.737,-31.332 19.3,-56.272 40.312,-83.338c11.446,-14.744 12.719,-32.823 7.954,-50.609c-6.825,-25.477 -26.167,-50.254 -43.312,-62.432c-12.523,-8.895 -17.16,-19.365 -21.786,-27.569c-3.851,-6.829 -7.827,-12.271 -14.383,-15.319c-11.815,-5.494 -18.898,-9.591 -26.636,-22.583Zm62.035,-40.051c9.117,-0.481 18.518,-0.892 28.202,-1.231c11.572,-0.407 22.942,-0.711 34.108,-0.914c11.199,-0.204 21.482,-0.305 30.848,-0.305c4.536,0 9.005,0.075 13.406,0.225c3.835,23.726 5.173,48.883 17.679,69.594c11.579,19.173 27.758,30.189 40.809,40.989c8.594,7.113 15.805,14.007 18.292,24.004c0.971,3.904 1.218,8.237 0.611,13.177c-8.218,-8.982 -18.41,-16.538 -30.457,-22.813c-15.454,-8.049 -35.037,-11.558 -58.54,-11.558l-17.997,-0c-2.526,-0 -5.052,0.034 -7.577,0.103c-10.056,-8.952 -19.093,-18.25 -23.093,-25.647c-6.368,-11.778 -9.094,-31.895 -17.692,-45.999c-9.614,-15.771 -19.429,-26.008 -28.599,-39.625Zm116.896,-1.73c30.433,1.894 57.503,7.5 81.25,16.579c3.261,8.022 7.396,15.673 13.161,22.741c4.898,6.005 11.411,11.189 17.524,16.609c5.353,4.746 10.423,9.649 13.218,15.836c5.725,12.672 3.238,25.058 2.259,38.489c-1.06,14.528 -0.195,30.311 -5.087,44.238c-2.427,6.906 -8.916,15.407 -16.657,23.907c-4.488,4.928 -8.601,12.751 -12.479,21.006c-0.384,-1.667 -0.79,-3.338 -1.217,-5.013c-3.396,-13.302 -8.942,-25.528 -16.647,-36.675c2.772,-10.492 2.812,-18.939 1.033,-26.09c-3.011,-12.104 -11.286,-20.795 -21.692,-29.406c-12.282,-10.164 -27.681,-20.357 -38.577,-38.401c-11.465,-18.986 -12.873,-41.931 -16.089,-63.82Zm95.292,22.454c26.016,11.833 47.953,27.333 65.929,46.32c9.174,9.689 17.338,20.19 24.478,31.51c-3.111,5.827 -7.101,11.071 -11.012,16.322c-6.023,8.09 -11.871,16.197 -15.016,25.888c-4.328,13.341 -5.555,27.45 -6.687,41.642c-1.071,13.426 -2.055,26.928 -5.964,39.83c-2.2,7.263 -6.589,13.804 -10.509,20.456c-4.529,7.686 -8.458,15.512 -9.125,24.267c-1.63,21.389 5.29,45.512 8.602,68.848c3.043,21.435 3.05,42.236 -12.073,59.038c-5.112,5.68 -8.916,8.186 -12.538,7.631c-2.529,-0.387 -4.631,-2.251 -6.734,-4.623c-2.813,-3.173 -5.42,-7.322 -8.069,-11.682c-4.945,-8.137 -19.711,-8.798 -25.834,-14.541c-7.32,-6.867 -15.99,-9.943 -27.239,-4.85c-11.052,5.005 -17.778,16.496 -25.01,25.545c-10.394,13.007 -13.089,13.734 -19.556,29.645c-5.839,14.365 -5.892,30.346 -12.25,44.56c-3.699,8.268 -8.457,15.814 -13.518,23.158c-1.362,0.013 -2.729,0.02 -4.104,0.02c-7.064,0 -16.518,-0.203 -28.362,-0.619c-5.681,-0.199 -11.438,-0.398 -17.269,-0.598c4.544,-5.373 9.439,-10.418 14.306,-15.466c10.061,-10.437 28.578,-25.844 35.64,-38.742c14.709,-26.865 10.116,-40.606 6.906,-58.346c21.007,-0.747 38.921,-4.257 53.636,-11.105c15.522,-7.223 28.092,-16.669 37.467,-28.656c9.6,-12.276 16.331,-26.222 20.265,-41.802c4.394,-17.399 6.573,-35.415 6.573,-54.044c0,-8.834 -0.68,-17.777 -2.029,-26.832c5.233,-11.222 10.815,-23.137 17.022,-29.953c8.819,-9.684 15.977,-19.53 18.742,-27.399c5.187,-14.767 4.513,-31.474 5.637,-46.879c1.106,-15.171 3.329,-29.123 -3.137,-43.436c-3.373,-7.466 -9.291,-13.547 -15.75,-19.273c-5.698,-5.052 -11.821,-9.827 -16.385,-15.423c-2.719,-3.333 -5.03,-6.813 -7.033,-10.411Zm96.34,87.848c6.381,11.492 11.787,23.763 16.206,36.821c0.307,0.908 0.61,1.819 0.908,2.732c-23.345,22.549 -19.461,43.705 -23.688,91.183c-1.772,19.913 -5.902,39.476 -10.904,58.81c-2.663,10.294 -6.576,19.948 -7.448,30.664c-1.405,17.26 10.4,31.723 23.437,45.45c-7.521,13.282 -16.423,25.746 -26.702,37.396c-11.15,12.637 -23.968,23.986 -38.483,34.002c-6.062,-3.721 -12.403,-6.689 -19.219,-8.283c-8.638,-2.019 -38.709,-6.75 -46.21,-2.704c-20.411,11.008 -22.643,28.317 -21.104,48.26c-16.35,3.498 -33.965,5.671 -52.856,6.464c3.89,-5.943 7.492,-12.082 10.438,-18.667c6.406,-14.321 6.505,-30.411 12.388,-44.885c6.074,-14.943 8.313,-14.899 18.074,-27.115c3.356,-4.2 6.535,-9.024 10.16,-13.377c3.149,-3.782 6.628,-7.222 11.084,-9.24c6.635,-3.004 11.723,-1.055 16.041,2.995c5.516,5.174 19.638,5.065 24.093,12.396c3.639,5.99 7.297,11.568 11.272,15.358c3.295,3.142 6.861,5.148 10.711,5.738c5.986,0.918 13.226,-1.506 21.675,-10.893c17.284,-19.203 18.071,-42.808 14.594,-67.305c-3.208,-22.595 -10.108,-45.927 -8.531,-66.638c0.549,-7.197 4.018,-13.539 7.741,-19.858c4.334,-7.352 9.052,-14.651 11.485,-22.679c4.12,-13.602 5.24,-27.825 6.37,-41.979c1.068,-13.389 2.137,-26.716 6.221,-39.302c2.796,-8.618 8.137,-15.747 13.493,-22.941c3.017,-4.051 6.043,-8.119 8.754,-12.403Zm21.266,53.594c6.463,24.299 9.743,50.348 9.743,78.164c0,31.124 -4.571,61.247 -13.686,90.371c-3.665,11.711 -8.178,22.92 -13.536,33.629c-10.68,-10.39 -19.645,-21.08 -18.535,-34.719c0.824,-10.123 4.641,-19.212 7.156,-28.935c5.143,-19.876 9.368,-39.991 11.19,-60.462c3.578,-40.188 2.884,-59.325 17.668,-78.048Zm-97.499,289.713c-9.883,6.122 -20.484,11.679 -31.81,16.659c-11.324,4.98 -23.491,9.11 -36.504,12.36c-1.307,-15.346 1.14,-28.556 17.291,-37.267c5.522,-2.978 32.679,2.174 39.038,3.66c4.192,0.98 8.163,2.579 11.985,4.588Zm-204.684,36.182c-1.679,-0.057 -3.364,-0.113 -5.055,-0.17c-12.276,-0.409 -23.632,-0.921 -34.067,-1.535c-9.082,-0.534 -16.19,-1.187 -21.329,-1.881c4.013,-6.366 8.834,-11.818 14.644,-15.68c9.163,-6.091 29.945,-13.154 40.219,-17.618c11.376,-4.942 22.039,-10.903 29.672,-21.243c11.167,-15.127 -11.305,-35.755 -6.768,-53.593c2.614,-10.272 5.974,-22.978 13.855,-32.918l-0,28.251c-0,1.958 1.554,3.563 3.511,3.625c5.339,0.171 10.39,0.341 15.153,0.511c3.905,0.139 6.954,0.23 9.148,0.265c2.795,22.694 9.579,26.168 -5.278,53.304c-6.62,12.091 -24.602,26.774 -34.034,36.558c-6.838,7.092 -13.686,14.21 -19.671,22.124Zm-70.863,-6.06c-11.175,-4.619 -18.783,-15.601 -18.783,-28.105l-0,-7.895c4.337,-4.047 8.987,-7.747 13.751,-10.687c16.498,-10.18 34.68,-5.771 43.941,-20.766c7.431,-12.031 5.832,-40.159 10.472,-53.548c8.491,-24.501 22.851,-48.503 39.971,-69.139c2.355,-2.839 6.991,-7.186 12.682,-12.126l-0,49.62c-13.39,10.977 -19.548,33.243 -23.139,47.357c-4.212,16.558 18.202,33.115 7.836,47.157c-6.526,8.841 -15.799,13.716 -25.525,17.942c-10.828,4.704 -32.148,12.061 -41.804,18.48c-7.838,5.21 -14.256,12.808 -19.402,21.71Z"/>
        </g>
        <g>
            <path d="M468.596,176.749c18.723,-8.321 41.711,-15.186 68.964,-20.595c27.253,-5.409 55.442,-8.114 84.567,-8.114c22.884,0 42.128,2.705 57.731,8.114c15.602,5.409 27.981,13.21 37.134,23.404c9.154,10.194 15.707,22.468 19.66,36.822c3.952,14.355 5.929,30.27 5.929,47.745c-0,21.22 -0.832,42.231 -2.497,63.035c-1.664,20.804 -2.496,42.856 -2.496,66.156c-0,15.811 1.04,31.205 3.12,46.184c2.081,14.979 5.409,29.333 9.986,43.064l-71.149,-0l-14.354,-48.681l-7.489,0c-10.818,14.563 -24.549,27.045 -41.192,37.447c-16.643,10.402 -38.071,15.603 -64.283,15.603c-15.811,-0 -30.27,-2.289 -43.376,-6.866c-13.106,-4.577 -24.34,-11.13 -33.702,-19.659c-9.362,-8.53 -16.643,-18.62 -21.844,-30.27c-5.201,-11.65 -7.801,-24.34 -7.801,-38.07c-0,-37.031 12.378,-65.012 37.134,-83.943c24.757,-18.932 62.308,-28.397 112.652,-28.397c11.651,-0 23.301,0.936 34.951,2.808c11.65,1.872 19.763,3.225 24.34,4.057c1.248,-8.738 1.872,-16.227 1.872,-22.468c0,-15.811 -3.952,-27.461 -11.858,-34.95c-7.905,-7.49 -22.676,-11.234 -44.312,-11.234c-19.971,-0 -39.423,2.392 -58.354,7.177c-18.931,4.785 -35.678,10.714 -50.241,17.787l-23.092,-66.156Zm114.212,240.283c19.556,0 35.159,-4.577 46.809,-13.73c11.65,-9.154 20.179,-18.724 25.588,-28.709l0,-37.447c-2.08,-0.832 -5.305,-1.664 -9.674,-2.497c-4.368,-0.832 -9.153,-1.664 -14.354,-2.496c-5.201,-0.832 -10.402,-1.456 -15.603,-1.872c-5.201,-0.416 -9.882,-0.624 -14.042,-0.624c-22.468,-0 -39.111,4.056 -49.929,12.17c-10.818,8.113 -16.227,18.203 -16.227,30.269c-0,14.979 4.265,26.213 12.794,33.702c8.53,7.489 20.076,11.234 34.638,11.234Z" style="fill-rule:nonzero;"/>
            <path d="M660.077,443.058c-10.744,13.295 -23.935,24.846 -39.592,34.632c-17.682,11.051 -40.408,16.743 -68.258,16.743c-16.714,-0 -31.994,-2.447 -45.849,-7.285c-14.114,-4.929 -26.198,-12.011 -36.28,-21.196c-10.131,-9.231 -18.013,-20.149 -23.641,-32.756c-5.62,-12.587 -8.453,-26.293 -8.453,-41.128c-0,-39.71 13.531,-69.6 40.079,-89.901c25.778,-19.713 64.784,-29.939 117.207,-29.939c12.047,-0 24.094,0.967 36.141,2.903c6.741,1.084 12.305,1.994 16.692,2.732c0.551,-5.127 0.83,-9.706 0.83,-13.738c0,-13.281 -2.875,-23.215 -9.516,-29.506c-6.954,-6.588 -20.12,-9.178 -39.154,-9.178c-19.342,-0 -38.181,2.314 -56.516,6.948c-18.388,4.648 -34.658,10.392 -48.802,17.262c-1.926,0.936 -4.159,1.004 -6.138,0.187c-1.979,-0.817 -3.514,-2.44 -4.22,-4.461l-23.092,-66.156c-1.286,-3.685 0.468,-7.74 4.035,-9.325c19.156,-8.514 42.667,-15.565 70.55,-21.099c27.724,-5.502 56.399,-8.257 86.027,-8.257c23.862,0 43.918,2.887 60.187,8.527c16.936,5.871 30.323,14.415 40.258,25.48c9.909,11.034 17.032,24.304 21.31,39.842c4.118,14.954 6.199,31.531 6.199,49.736c-0,21.421 -0.841,42.632 -2.521,63.633c-1.649,20.616 -2.472,42.468 -2.472,65.558c-0,15.457 1.015,30.508 3.049,45.152c2.016,14.513 5.238,28.421 9.672,41.724c0.763,2.287 0.379,4.801 -1.031,6.757c-1.409,1.956 -3.673,3.115 -6.084,3.115l-71.149,-0c-3.325,-0 -6.253,-2.19 -7.193,-5.379l-12.275,-41.627Zm-191.481,-266.309l23.092,66.156c14.563,-7.073 31.31,-13.002 50.241,-17.787c18.931,-4.785 38.383,-7.177 58.354,-7.177c21.636,-0 36.407,3.744 44.312,11.234c7.906,7.489 11.858,19.139 11.858,34.95c0,6.241 -0.624,13.73 -1.872,22.468c-4.577,-0.832 -12.69,-2.185 -24.34,-4.057c-11.65,-1.872 -23.3,-2.808 -34.951,-2.808c-50.344,-0 -87.895,9.465 -112.652,28.397c-24.756,18.931 -37.134,46.912 -37.134,83.943c-0,13.73 2.6,26.42 7.801,38.07c5.201,11.65 12.482,21.74 21.844,30.27c9.362,8.529 20.596,15.082 33.702,19.659c13.106,4.577 27.565,6.866 43.376,6.866c26.212,-0 47.64,-5.201 64.283,-15.603c16.643,-10.402 30.374,-22.884 41.192,-37.447l7.489,0l14.354,48.681l71.149,-0c-4.577,-13.731 -7.905,-28.085 -9.986,-43.064c-2.08,-14.979 -3.12,-30.373 -3.12,-46.184c-0,-23.3 0.832,-45.352 2.496,-66.156c1.665,-20.804 2.497,-41.815 2.497,-63.035c-0,-17.475 -1.977,-33.39 -5.929,-47.745c-3.953,-14.354 -10.506,-26.628 -19.66,-36.822c-9.153,-10.194 -21.532,-17.995 -37.134,-23.404c-15.603,-5.409 -34.847,-8.114 -57.731,-8.114c-29.125,0 -57.314,2.705 -84.567,8.114c-27.253,5.409 -50.241,12.274 -68.964,20.595Zm114.212,240.283c-14.562,0 -26.108,-3.745 -34.638,-11.234c-8.529,-7.489 -12.794,-18.723 -12.794,-33.702c-0,-12.066 5.409,-22.156 16.227,-30.269c10.818,-8.114 27.461,-12.17 49.929,-12.17c4.16,-0 8.841,0.208 14.042,0.624c5.201,0.416 10.402,1.04 15.603,1.872c5.201,0.832 9.986,1.664 14.354,2.496c4.369,0.833 7.594,1.665 9.674,2.497l0,37.447c-5.409,9.985 -13.938,19.555 -25.588,28.709c-11.65,9.153 -27.253,13.73 -46.809,13.73Zm0,-7.5c17.593,0 31.694,-3.893 42.175,-12.128c10.1,-7.936 17.709,-16.162 22.722,-24.772c0,-0 0,-29.878 0,-29.878c-1.072,-0.243 -2.265,-0.487 -3.577,-0.737c-4.302,-0.82 -9.014,-1.639 -14.136,-2.458c-5.005,-0.801 -10.011,-1.402 -15.016,-1.802c-4.979,-0.399 -9.461,-0.6 -13.444,-0.6c-20.402,-0 -35.606,3.302 -45.429,10.67c-8.706,6.529 -13.227,14.559 -13.227,24.269c-0,12.414 3.173,21.859 10.243,28.066c7.292,6.403 17.239,9.37 29.689,9.37Z" style="fill:white;"/>
            <path d="M1037.79,481.94l0,-171.007c0,-31.621 -3.328,-54.297 -9.986,-68.028c-6.657,-13.73 -20.387,-20.596 -41.191,-20.596c-17.475,0 -31.413,4.265 -41.815,12.795c-10.402,8.529 -18.516,19.659 -24.341,33.39l0,213.446l-87.375,-0l-0,-327.659l67.404,0l9.986,45.56l8.113,0c5.409,-7.073 11.65,-13.938 18.723,-20.595c7.074,-6.657 14.875,-12.482 23.404,-17.475c8.53,-4.993 18.1,-9.05 28.71,-12.171c10.609,-3.12 22.572,-4.68 35.886,-4.68c22.052,-0 40.463,4.889 55.234,14.666c14.77,9.778 26.525,26.109 35.262,48.993c12.066,-19.972 26.733,-35.574 44,-46.808c17.267,-11.234 37.343,-16.851 60.227,-16.851c19.971,-0 36.926,2.288 50.865,6.865c13.938,4.577 25.276,12.482 34.014,23.716c8.737,11.234 15.082,26.421 19.035,45.56c3.953,19.14 5.929,43.064 5.929,71.773l0,189.106l-87.375,-0l-0,-175.376c-0,-13.73 -0.624,-25.796 -1.873,-36.198c-1.248,-10.402 -3.744,-19.243 -7.489,-26.525c-3.745,-7.281 -9.05,-12.69 -15.915,-16.227c-6.865,-3.536 -15.915,-5.305 -27.149,-5.305c-17.475,0 -31.517,4.473 -42.127,13.419c-10.61,8.945 -18.203,21.324 -22.78,37.134l-0,209.078l-87.376,-0Z" style="fill-rule:nonzero;"/>
            <path d="M916.167,190.817c4.78,-5.815 10.111,-11.494 15.996,-17.033c7.482,-7.042 15.733,-13.205 24.756,-18.486c9.028,-5.285 19.152,-9.59 30.381,-12.893c11.237,-3.305 23.902,-4.985 38.003,-4.985c23.719,-0 43.486,5.395 59.374,15.912c12.922,8.555 23.825,21.679 32.503,39.523c11.074,-15.427 23.929,-27.872 38.529,-37.371c18.445,-12 39.872,-18.064 64.317,-18.064c20.893,-0 38.623,2.451 53.204,7.239c15.411,5.06 27.935,13.817 37.595,26.238c9.339,12.007 16.235,28.191 20.46,48.647c4.037,19.545 6.084,43.973 6.084,73.29l0,189.106c0,4.142 -3.358,7.5 -7.5,7.5l-87.375,-0c-4.142,-0 -7.5,-3.358 -7.5,-7.5l-0,-175.376c-0,-13.391 -0.602,-25.159 -1.819,-35.304c-1.128,-9.401 -3.328,-17.408 -6.713,-23.989c-2.99,-5.815 -7.197,-10.165 -12.68,-12.989c-5.989,-3.086 -13.913,-4.473 -23.714,-4.473c-15.442,0 -27.917,3.747 -37.293,11.653c-9.325,7.862 -15.97,18.725 -20.114,32.484l-0,207.994c-0,4.142 -3.358,7.5 -7.5,7.5l-87.376,-0c-4.142,-0 -7.5,-3.358 -7.5,-7.5l0,-171.007c0,-30.083 -2.901,-51.694 -9.234,-64.756c-5.513,-11.369 -17.217,-16.368 -34.443,-16.368c-15.459,0 -27.858,3.549 -37.06,11.094c-9.149,7.503 -16.326,17.233 -21.596,29.145l0,211.892c0,4.142 -3.358,7.5 -7.5,7.5l-87.375,-0c-4.142,-0 -7.5,-3.358 -7.5,-7.5l-0,-327.659c-0,-4.142 3.358,-7.5 7.5,-7.5l67.404,0c3.523,0 6.572,2.453 7.326,5.895l8.36,38.141Zm121.618,291.123l87.376,-0l-0,-209.078c4.577,-15.81 12.17,-28.189 22.78,-37.134c10.61,-8.946 24.652,-13.419 42.127,-13.419c11.234,0 20.284,1.769 27.149,5.305c6.865,3.537 12.17,8.946 15.915,16.227c3.745,7.282 6.241,16.123 7.489,26.525c1.249,10.402 1.873,22.468 1.873,36.198l-0,175.376l87.375,-0l0,-189.106c0,-28.709 -1.976,-52.633 -5.929,-71.773c-3.953,-19.139 -10.298,-34.326 -19.035,-45.56c-8.738,-11.234 -20.076,-19.139 -34.014,-23.716c-13.939,-4.577 -30.894,-6.865 -50.865,-6.865c-22.884,-0 -42.96,5.617 -60.227,16.851c-17.267,11.234 -31.934,26.836 -44,46.808c-8.737,-22.884 -20.492,-39.215 -35.262,-48.993c-14.771,-9.777 -33.182,-14.666 -55.234,-14.666c-13.314,-0 -25.277,1.56 -35.886,4.68c-10.61,3.121 -20.18,7.178 -28.71,12.171c-8.529,4.993 -16.33,10.818 -23.404,17.475c-7.073,6.657 -13.314,13.522 -18.723,20.595l-8.113,0l-9.986,-45.56l-67.404,0l-0,327.659l87.375,-0l0,-213.446c5.825,-13.731 13.939,-24.861 24.341,-33.39c10.402,-8.53 24.34,-12.795 41.815,-12.795c20.804,0 34.534,6.866 41.191,20.596c6.658,13.731 9.986,36.407 9.986,68.028l0,171.007Z" style="fill:white;"/>
            <path d="M1416.62,176.749c18.723,-8.321 41.711,-15.186 68.964,-20.595c27.253,-5.409 55.442,-8.114 84.567,-8.114c22.884,0 42.127,2.705 57.73,8.114c15.603,5.409 27.981,13.21 37.135,23.404c9.153,10.194 15.707,22.468 19.659,36.822c3.953,14.355 5.929,30.27 5.929,47.745c0,21.22 -0.832,42.231 -2.496,63.035c-1.664,20.804 -2.497,42.856 -2.497,66.156c0,15.811 1.041,31.205 3.121,46.184c2.08,14.979 5.409,29.333 9.986,43.064l-71.149,-0l-14.354,-48.681l-7.49,0c-10.818,14.563 -24.548,27.045 -41.191,37.447c-16.643,10.402 -38.071,15.603 -64.283,15.603c-15.811,-0 -30.27,-2.289 -43.376,-6.866c-13.107,-4.577 -24.341,-11.13 -33.702,-19.659c-9.362,-8.53 -16.643,-18.62 -21.844,-30.27c-5.201,-11.65 -7.801,-24.34 -7.801,-38.07c-0,-37.031 12.378,-65.012 37.134,-83.943c24.757,-18.932 62.307,-28.397 112.652,-28.397c11.65,-0 23.3,0.936 34.95,2.808c11.65,1.872 19.764,3.225 24.341,4.057c1.248,-8.738 1.872,-16.227 1.872,-22.468c0,-15.811 -3.953,-27.461 -11.858,-34.95c-7.905,-7.49 -22.676,-11.234 -44.312,-11.234c-19.971,-0 -39.423,2.392 -58.354,7.177c-18.932,4.785 -35.679,10.714 -50.241,17.787l-23.092,-66.156Zm114.212,240.283c19.555,0 35.158,-4.577 46.808,-13.73c11.65,-9.154 20.18,-18.724 25.589,-28.709l-0,-37.447c-2.081,-0.832 -5.305,-1.664 -9.674,-2.497c-4.369,-0.832 -9.154,-1.664 -14.354,-2.496c-5.201,-0.832 -10.402,-1.456 -15.603,-1.872c-5.201,-0.416 -9.882,-0.624 -14.043,-0.624c-22.468,-0 -39.111,4.056 -49.929,12.17c-10.818,8.113 -16.226,18.203 -16.226,30.269c-0,14.979 4.264,26.213 12.794,33.702c8.529,7.489 20.075,11.234 34.638,11.234Z" style="fill-rule:nonzero;"/>
            <path d="M1608.1,443.058c-10.745,13.295 -23.935,24.846 -39.592,34.632c-17.683,11.051 -40.408,16.743 -68.258,16.743c-16.714,-0 -31.994,-2.447 -45.849,-7.285c-14.114,-4.929 -26.199,-12.011 -36.28,-21.196c-10.132,-9.231 -18.013,-20.149 -23.642,-32.756c-5.619,-12.587 -8.452,-26.293 -8.452,-41.128c-0,-39.71 13.531,-69.6 40.078,-89.901c25.779,-19.713 64.785,-29.939 117.208,-29.939c12.047,-0 24.094,0.967 36.14,2.903c6.741,1.084 12.305,1.994 16.693,2.732c0.551,-5.127 0.83,-9.706 0.83,-13.738c0,-13.281 -2.876,-23.215 -9.516,-29.506c-6.955,-6.588 -20.12,-9.178 -39.154,-9.178c-19.342,-0 -38.181,2.314 -56.517,6.948c-18.387,4.648 -34.657,10.392 -48.801,17.262c-1.926,0.936 -4.16,1.004 -6.138,0.187c-1.979,-0.817 -3.515,-2.44 -4.22,-4.461l-23.092,-66.156c-1.287,-3.685 0.468,-7.74 4.035,-9.325c19.156,-8.514 42.667,-15.565 70.55,-21.099c27.723,-5.502 56.399,-8.257 86.027,-8.257c23.862,0 43.918,2.887 60.187,8.527c16.935,5.871 30.323,14.415 40.258,25.48c9.908,11.034 17.032,24.304 21.31,39.842c4.118,14.954 6.198,31.531 6.198,49.736c0,21.421 -0.84,42.632 -2.52,63.633c-1.649,20.616 -2.473,42.468 -2.473,65.558c0,15.457 1.016,30.508 3.05,45.152c2.015,14.513 5.238,28.421 9.672,41.724c0.762,2.287 0.379,4.801 -1.031,6.757c-1.409,1.956 -3.673,3.115 -6.084,3.115l-71.149,-0c-3.325,-0 -6.253,-2.19 -7.194,-5.379l-12.274,-41.627Zm-191.481,-266.309l23.092,66.156c14.562,-7.073 31.309,-13.002 50.241,-17.787c18.931,-4.785 38.383,-7.177 58.354,-7.177c21.636,-0 36.407,3.744 44.312,11.234c7.905,7.489 11.858,19.139 11.858,34.95c0,6.241 -0.624,13.73 -1.872,22.468c-4.577,-0.832 -12.691,-2.185 -24.341,-4.057c-11.65,-1.872 -23.3,-2.808 -34.95,-2.808c-50.345,-0 -87.895,9.465 -112.652,28.397c-24.756,18.931 -37.134,46.912 -37.134,83.943c-0,13.73 2.6,26.42 7.801,38.07c5.201,11.65 12.482,21.74 21.844,30.27c9.361,8.529 20.595,15.082 33.702,19.659c13.106,4.577 27.565,6.866 43.376,6.866c26.212,-0 47.64,-5.201 64.283,-15.603c16.643,-10.402 30.373,-22.884 41.191,-37.447l7.49,0l14.354,48.681l71.149,-0c-4.577,-13.731 -7.906,-28.085 -9.986,-43.064c-2.08,-14.979 -3.121,-30.373 -3.121,-46.184c0,-23.3 0.833,-45.352 2.497,-66.156c1.664,-20.804 2.496,-41.815 2.496,-63.035c0,-17.475 -1.976,-33.39 -5.929,-47.745c-3.952,-14.354 -10.506,-26.628 -19.659,-36.822c-9.154,-10.194 -21.532,-17.995 -37.135,-23.404c-15.603,-5.409 -34.846,-8.114 -57.73,-8.114c-29.125,0 -57.314,2.705 -84.567,8.114c-27.253,5.409 -50.241,12.274 -68.964,20.595Zm114.212,240.283c-14.563,0 -26.109,-3.745 -34.638,-11.234c-8.53,-7.489 -12.794,-18.723 -12.794,-33.702c-0,-12.066 5.408,-22.156 16.226,-30.269c10.818,-8.114 27.461,-12.17 49.929,-12.17c4.161,-0 8.842,0.208 14.043,0.624c5.201,0.416 10.402,1.04 15.603,1.872c5.2,0.832 9.985,1.664 14.354,2.496c4.369,0.833 7.593,1.665 9.674,2.497l-0,37.447c-5.409,9.985 -13.939,19.555 -25.589,28.709c-11.65,9.153 -27.253,13.73 -46.808,13.73Zm-0,-7.5c17.592,0 31.694,-3.893 42.175,-12.128c10.1,-7.936 17.708,-16.162 22.722,-24.772c-0,-0 -0,-29.878 -0,-29.878c-1.073,-0.243 -2.265,-0.487 -3.577,-0.737c-4.303,-0.82 -9.015,-1.639 -14.136,-2.458c-5.006,-0.801 -10.011,-1.402 -15.016,-1.802c-4.98,-0.399 -9.461,-0.6 -13.445,-0.6c-20.402,-0 -35.605,3.302 -45.429,10.67c-8.706,6.529 -13.226,14.559 -13.226,24.269c-0,12.414 3.173,21.859 10.242,28.066c7.293,6.403 17.239,9.37 29.69,9.37Z" style="fill:white;"/>
            <path d="M1780.48,397.061c5.825,2.912 12.587,5.825 20.284,8.737c7.697,2.913 16.019,5.617 24.964,8.114c8.946,2.496 18.1,4.576 27.461,6.241c9.362,1.664 18.828,2.496 28.397,2.496c14.563,0 25.901,-2.288 34.014,-6.865c8.114,-4.577 12.171,-13.106 12.171,-25.589c-0,-9.985 -5.409,-17.371 -16.227,-22.156c-10.818,-4.785 -24.133,-9.465 -39.943,-14.042c-11.65,-3.329 -23.821,-7.281 -36.511,-11.858c-12.69,-4.577 -24.34,-10.714 -34.95,-18.412c-10.61,-7.697 -19.348,-17.787 -26.213,-30.269c-6.865,-12.482 -10.298,-28.293 -10.298,-47.432c0,-32.87 10.194,-57.939 30.582,-75.206c20.387,-17.267 49.721,-25.9 87.999,-25.9c24.965,-0 48.369,2.184 70.213,6.553c21.844,4.369 39.423,9.465 52.737,15.291l-18.099,66.155c-10.818,-4.16 -24.652,-8.425 -41.503,-12.794c-16.851,-4.369 -34.014,-6.553 -51.489,-6.553c-14.563,-0 -25.381,2.184 -32.454,6.553c-7.073,4.369 -10.61,11.962 -10.61,22.78c-0,9.57 5.513,16.747 16.539,21.532c11.026,4.785 24.444,9.466 40.255,14.042c11.65,3.329 23.82,7.178 36.511,11.546c12.69,4.369 24.236,10.298 34.638,17.788c10.402,7.489 19.035,17.163 25.9,29.021c6.866,11.858 10.298,26.733 10.298,44.624c0,34.95 -11.338,61.995 -34.014,81.134c-22.676,19.14 -56.69,28.709 -102.042,28.709c-24.548,0 -47.433,-2.184 -68.652,-6.553c-21.22,-4.369 -38.487,-10.714 -51.802,-19.035l21.844,-68.652Z" style="fill-rule:nonzero;"/>
            <path d="M1783.83,390.352c5.624,2.812 12.153,5.62 19.584,8.431c7.501,2.838 15.61,5.472 24.326,7.905c8.717,2.432 17.636,4.459 26.758,6.08c8.929,1.588 17.957,2.381 27.084,2.381c12.967,0 23.105,-1.822 30.33,-5.897c5.957,-3.361 8.355,-9.891 8.355,-19.057c-0,-7.016 -4.16,-11.935 -11.761,-15.297c-10.558,-4.669 -23.555,-9.227 -38.985,-13.694c-11.8,-3.372 -24.126,-7.375 -36.979,-12.01c-13.367,-4.821 -25.635,-11.288 -36.81,-19.396c-11.478,-8.327 -20.954,-19.222 -28.38,-32.726c-7.393,-13.441 -11.227,-30.436 -11.227,-51.046c0,-35.421 11.265,-62.322 33.235,-80.929c21.532,-18.237 52.418,-27.677 92.846,-27.677c25.488,-0 49.382,2.238 71.684,6.698c22.484,4.497 40.568,9.779 54.273,15.774c3.41,1.492 5.21,5.26 4.228,8.851l-18.1,66.155c-0.559,2.045 -1.957,3.757 -3.849,4.714c-1.891,0.957 -4.099,1.068 -6.077,0.307c-10.606,-4.079 -24.173,-8.251 -40.693,-12.534c-16.235,-4.209 -32.771,-6.313 -49.607,-6.313c-12.767,-0 -22.312,1.604 -28.513,5.434c-5.024,3.103 -7.051,8.715 -7.051,16.399c-0,6.681 4.327,11.311 12.025,14.652c10.776,4.676 23.893,9.242 39.345,13.715c11.767,3.363 24.059,7.25 36.876,11.662c13.402,4.614 25.593,10.882 36.579,18.792c11.242,8.094 20.589,18.534 28.009,31.35c7.448,12.865 11.307,28.971 11.307,48.382c0,37.459 -12.373,66.352 -36.676,86.866c-23.775,20.066 -59.33,30.477 -106.88,30.477c-25.09,0 -48.477,-2.242 -70.165,-6.707c-22.239,-4.579 -40.309,-11.3 -54.264,-20.021c-2.905,-1.816 -4.21,-5.37 -3.171,-8.634l21.843,-68.653c0.665,-2.088 2.21,-3.782 4.23,-4.635c2.019,-0.853 4.311,-0.779 6.271,0.201Zm-3.354,6.709l-21.844,68.652c13.315,8.321 30.582,14.666 51.802,19.035c21.219,4.369 44.104,6.553 68.652,6.553c45.352,0 79.366,-9.569 102.042,-28.709c22.676,-19.139 34.014,-46.184 34.014,-81.134c0,-17.891 -3.432,-32.766 -10.298,-44.624c-6.865,-11.858 -15.498,-21.532 -25.9,-29.021c-10.402,-7.49 -21.948,-13.419 -34.638,-17.788c-12.691,-4.368 -24.861,-8.217 -36.511,-11.546c-15.811,-4.576 -29.229,-9.257 -40.255,-14.042c-11.026,-4.785 -16.539,-11.962 -16.539,-21.532c-0,-10.818 3.537,-18.411 10.61,-22.78c7.073,-4.369 17.891,-6.553 32.454,-6.553c17.475,-0 34.638,2.184 51.489,6.553c16.851,4.369 30.685,8.634 41.503,12.794l18.099,-66.155c-13.314,-5.826 -30.893,-10.922 -52.737,-15.291c-21.844,-4.369 -45.248,-6.553 -70.213,-6.553c-38.278,-0 -67.612,8.633 -87.999,25.9c-20.388,17.267 -30.582,42.336 -30.582,75.206c0,19.139 3.433,34.95 10.298,47.432c6.865,12.482 15.603,22.572 26.213,30.269c10.61,7.698 22.26,13.835 34.95,18.412c12.69,4.577 24.861,8.529 36.511,11.858c15.81,4.577 29.125,9.257 39.943,14.042c10.818,4.785 16.227,12.171 16.227,22.156c-0,12.483 -4.057,21.012 -12.171,25.589c-8.113,4.577 -19.451,6.865 -34.014,6.865c-9.569,0 -19.035,-0.832 -28.397,-2.496c-9.361,-1.665 -18.515,-3.745 -27.461,-6.241c-8.945,-2.497 -17.267,-5.201 -24.964,-8.114c-7.697,-2.912 -14.459,-5.825 -20.284,-8.737Z" style="fill:white;"/>
            <path d="M2329.7,461.968c-14.146,9.57 -31.101,16.851 -50.865,21.844c-19.763,4.993 -40.255,7.489 -61.475,7.489c-28.293,0 -52.113,-4.16 -71.461,-12.482c-19.347,-8.321 -35.158,-20.18 -47.432,-35.574c-12.274,-15.395 -21.116,-33.598 -26.525,-54.61c-5.409,-21.012 -8.113,-44.416 -8.113,-70.212c-0,-54.506 13.418,-97.05 40.255,-127.631c26.837,-30.582 65.844,-45.872 117.021,-45.872c24.964,-0 45.456,1.976 61.475,5.929c16.019,3.952 30.269,9.049 42.751,15.29l-21.219,69.901c-10.818,-4.577 -21.532,-8.01 -32.142,-10.298c-10.61,-2.288 -22.988,-3.433 -37.135,-3.433c-26.212,0 -46.288,7.594 -60.226,22.78c-13.939,15.187 -20.908,39.632 -20.908,73.334c-0,13.314 1.664,25.692 4.993,37.134c3.328,11.442 8.529,21.532 15.602,30.27c7.074,8.737 16.019,15.602 26.837,20.595c10.818,4.993 23.508,7.49 38.071,7.49c17.475,-0 31.31,-1.561 41.503,-4.681c10.194,-3.121 19.868,-7.386 29.022,-12.795l19.971,65.532Z" style="fill-rule:nonzero;"/>
            <path d="M2333.9,468.18c-14.808,10.018 -32.541,17.677 -53.23,22.903c-20.354,5.143 -41.458,7.718 -63.312,7.718c-29.472,0 -54.27,-4.424 -74.424,-13.092c-20.538,-8.834 -37.304,-21.446 -50.333,-37.789c-12.908,-16.189 -22.236,-35.318 -27.924,-57.415c-5.553,-21.572 -8.35,-45.598 -8.35,-72.082c-0,-56.656 14.223,-100.79 42.118,-132.578c28.156,-32.085 68.964,-48.425 122.658,-48.425c25.696,-0 46.783,2.079 63.271,6.147c16.605,4.097 31.371,9.395 44.309,15.864c3.27,1.635 4.885,5.389 3.823,8.887l-21.22,69.9c-0.618,2.035 -2.07,3.712 -3.996,4.614c-1.926,0.902 -4.144,0.944 -6.103,0.115c-10.367,-4.386 -20.633,-7.681 -30.8,-9.874c-10.158,-2.19 -22.01,-3.264 -35.554,-3.264c-23.759,0 -42.067,6.586 -54.701,20.352c-12.948,14.108 -18.933,36.953 -18.933,68.262c-0,12.562 1.554,24.243 4.694,35.039c3.039,10.447 7.773,19.668 14.231,27.646c6.361,7.858 14.421,14.014 24.15,18.504c9.921,4.579 21.573,6.8 34.928,6.8c16.547,-0 29.656,-1.398 39.308,-4.353c9.625,-2.946 18.758,-6.973 27.401,-12.08c1.98,-1.17 4.388,-1.366 6.532,-0.533c2.144,0.833 3.787,2.604 4.458,4.804l19.971,65.532c0.96,3.148 -0.245,6.554 -2.972,8.398Zm-4.202,-6.212l-19.971,-65.532c-9.154,5.409 -18.828,9.674 -29.022,12.795c-10.193,3.12 -24.028,4.681 -41.503,4.681c-14.563,-0 -27.253,-2.497 -38.071,-7.49c-10.818,-4.993 -19.763,-11.858 -26.837,-20.595c-7.073,-8.738 -12.274,-18.828 -15.602,-30.27c-3.329,-11.442 -4.993,-23.82 -4.993,-37.134c-0,-33.702 6.969,-58.147 20.908,-73.334c13.938,-15.186 34.014,-22.78 60.226,-22.78c14.147,0 26.525,1.145 37.135,3.433c10.61,2.288 21.324,5.721 32.142,10.298l21.219,-69.901c-12.482,-6.241 -26.732,-11.338 -42.751,-15.29c-16.019,-3.953 -36.511,-5.929 -61.475,-5.929c-51.177,-0 -90.184,15.29 -117.021,45.872c-26.837,30.581 -40.255,73.125 -40.255,127.631c-0,25.796 2.704,49.2 8.113,70.212c5.409,21.012 14.251,39.215 26.525,54.61c12.274,15.394 28.085,27.253 47.432,35.574c19.348,8.322 43.168,12.482 71.461,12.482c21.22,0 41.712,-2.496 61.475,-7.489c19.764,-4.993 36.719,-12.274 50.865,-21.844Z" style="fill:white;"/>
        </g>
    </g>
</svg>
